<svg width="4950" height="990" viewBox="0 0 4950 990" fill="none" xmlns="http://www.w3.org/2000/svg">
<path d="M490.245 46.9959C491.741 42.3894 498.259 42.3893 499.755 46.9959L593.256 334.762C596.603 345.063 606.202 352.037 617.033 352.037L919.608 352.037C924.451 352.037 926.465 358.235 922.547 361.082L677.758 538.931C668.996 545.297 665.33 556.581 668.676 566.882L762.177 854.648C763.674 859.254 758.402 863.085 754.483 860.238L509.695 682.389C500.932 676.023 489.068 676.023 480.305 682.389L235.517 860.238C231.598 863.085 226.326 859.254 227.823 854.648L321.324 566.882C324.67 556.581 321.004 545.297 312.242 538.931L67.4533 361.082C63.5348 358.235 65.5487 352.037 70.3923 352.037L372.967 352.037C383.798 352.037 393.397 345.063 396.744 334.762L490.245 46.9959Z" fill="#FAD600" stroke="#FAD600" stroke-width="20"/>
<path d="M1480.24 46.9959C1481.74 42.3894 1488.26 42.3893 1489.76 46.9959L1583.26 334.762C1586.6 345.063 1596.2 352.037 1607.03 352.037L1909.61 352.037C1914.45 352.037 1916.47 358.235 1912.55 361.082L1667.76 538.931C1659 545.297 1655.33 556.581 1658.68 566.882L1752.18 854.648C1753.67 859.254 1748.4 863.085 1744.48 860.238L1499.69 682.389C1490.93 676.023 1479.07 676.023 1470.31 682.389L1225.52 860.238C1221.6 863.085 1216.33 859.254 1217.82 854.648L1311.32 566.882C1314.67 556.581 1311 545.297 1302.24 538.931L1057.45 361.082C1053.53 358.235 1055.55 352.037 1060.39 352.037L1362.97 352.037C1373.8 352.037 1383.4 345.063 1386.74 334.762L1480.24 46.9959Z" fill="#FAD600" stroke="#FAD600" stroke-width="20"/>
<path d="M3460.24 46.9959C3461.74 42.3894 3468.26 42.3893 3469.76 46.9959L3563.26 334.762C3566.6 345.063 3576.2 352.037 3587.03 352.037L3889.61 352.037C3894.45 352.037 3896.47 358.235 3892.55 361.082L3647.76 538.931C3639 545.297 3635.33 556.581 3638.68 566.882L3732.18 854.648C3733.67 859.254 3728.4 863.085 3724.48 860.238L3479.69 682.389C3470.93 676.023 3459.07 676.023 3450.31 682.389L3205.52 860.238C3201.6 863.085 3196.33 859.254 3197.82 854.648L3291.32 566.882C3294.67 556.581 3291 545.297 3282.24 538.931L3037.45 361.082C3033.53 358.235 3035.55 352.037 3040.39 352.037L3342.97 352.037C3353.8 352.037 3363.4 345.063 3366.74 334.762L3460.24 46.9959Z" fill="#FAD600" stroke="#FAD600" stroke-width="20"/>
<path d="M4450.24 46.9959C4451.74 42.3894 4458.26 42.3893 4459.76 46.9959L4553.26 334.762C4556.6 345.063 4566.2 352.037 4577.03 352.037L4879.61 352.037C4884.45 352.037 4886.47 358.235 4882.55 361.082L4637.76 538.931C4629 545.297 4625.33 556.581 4628.68 566.882L4722.18 854.648C4723.67 859.254 4718.4 863.085 4714.48 860.238L4469.69 682.389C4460.93 676.023 4449.07 676.023 4440.31 682.389L4195.52 860.238C4191.6 863.085 4186.33 859.254 4187.82 854.648L4281.32 566.882C4284.67 556.581 4281 545.297 4272.24 538.931L4027.45 361.082C4023.53 358.235 4025.55 352.037 4030.39 352.037L4332.97 352.037C4343.8 352.037 4353.4 345.063 4356.74 334.762L4450.24 46.9959Z" stroke="#FAD600" stroke-width="20"/>
<mask id="mask0_172_23" style="mask-type:alpha" maskUnits="userSpaceOnUse" x="3960" y="0" width="693" height="990">
<rect x="3960" width="693" height="990" fill="#FAD600"/>
</mask>
<g mask="url(#mask0_172_23)">
<path d="M4450.24 46.9959C4451.74 42.3894 4458.26 42.3893 4459.76 46.9959L4553.26 334.762C4556.6 345.063 4566.2 352.037 4577.03 352.037L4879.61 352.037C4884.45 352.037 4886.47 358.235 4882.55 361.082L4637.76 538.931C4629 545.297 4625.33 556.581 4628.68 566.882L4722.18 854.648C4723.67 859.254 4718.4 863.085 4714.48 860.238L4469.69 682.389C4460.93 676.023 4449.07 676.023 4440.31 682.389L4195.52 860.238C4191.6 863.085 4186.33 859.254 4187.82 854.648L4281.32 566.882C4284.67 556.581 4281 545.297 4272.24 538.931L4027.45 361.082C4023.53 358.235 4025.55 352.037 4030.39 352.037L4332.97 352.037C4343.8 352.037 4353.4 345.063 4356.74 334.762L4450.24 46.9959Z" fill="#FAD600" stroke="#FAD600" stroke-width="20"/>
</g>
<path d="M2470.24 46.9959C2471.74 42.3894 2478.26 42.3893 2479.76 46.9959L2573.26 334.762C2576.6 345.063 2586.2 352.037 2597.03 352.037L2899.61 352.037C2904.45 352.037 2906.47 358.235 2902.55 361.082L2657.76 538.931C2649 545.297 2645.33 556.581 2648.68 566.882L2742.18 854.648C2743.67 859.254 2738.4 863.085 2734.48 860.238L2489.69 682.389C2480.93 676.023 2469.07 676.023 2460.31 682.389L2215.52 860.238C2211.6 863.085 2206.33 859.254 2207.82 854.648L2301.32 566.882C2304.67 556.581 2301 545.297 2292.24 538.931L2047.45 361.082C2043.53 358.235 2045.55 352.037 2050.39 352.037L2352.97 352.037C2363.8 352.037 2373.4 345.063 2376.74 334.762L2470.24 46.9959Z" fill="#FAD600" stroke="#FAD600" stroke-width="20"/>
</svg>
