<svg width="800" height="760" viewBox="0 0 800 760" fill="none" xmlns="http://www.w3.org/2000/svg">
<path d="M800 215.2L759.6 328V327.6C738.8 320 718.4 321.2 698.4 330.8C678.4 340.4 664.4 355.6 656.8 376.4C649.2 397.2 650.4 417.6 659.6 437.6C669.2 457.6 684.4 471.2 705.6 478.8V479.2L665.2 592L62.8 376.8L102.4 265.2C123.2 272.8 143.6 271.6 163.6 262C183.6 252.8 197.2 237.6 204.8 216.8C212.4 196 211.2 175.6 201.6 155.6C192.4 136 177.2 122.4 156.4 114.8L197.2 0L800 215.2ZM601.2 442.8L656 292.4C660.8 280 660 266.4 654.4 254.4C648.8 242.4 638.8 233.2 626.4 228.4L325.6 119.2C300 110 270.8 124 261.6 148.8L206.8 299.2C197.2 325.2 210.8 354 236.4 363.2L537.2 472.8C542.8 474.8 548.4 476 554.4 476C575.2 476 594.4 462.8 601.2 442.8ZM318.8 138L619.2 247.2C626.8 250 632.8 255.6 636.4 262.8C639.6 270 640 278 637.2 285.6L582.4 436C577.2 451.2 559.2 459.6 544 454L243.6 344.4C228 338.8 220 321.6 225.6 306L280.4 155.6C284.4 144 296 136 308.4 136C312 136 315.2 136.8 318.8 138ZM591.6 623.6C605.6 634.4 621.6 640 639.6 640H640V760H0V641.6C22 641.6 41.2 633.6 56.4 618C72 602.8 80 583.6 80 561.6C80 539.6 72 520.8 56.4 505.2C40.8 489.6 22 481.6 0 481.6V360H42L30.8 392L145.6 432.8C125.2 439.2 110 457.6 110 480V640C110 667.6 132.4 690 160 690H480C507.6 690 530 667.6 530 640V570L563.2 582C568 599.2 577.6 613.2 591.6 623.6ZM130 640V480C130 463.6 143.6 450 160 450H193.2L510 563.2V640C510 656.4 496.4 670 480 670H160C143.6 670 130 656.4 130 640Z" fill="#FAD600"/>
</svg>
